<?xml version="1.0" encoding="UTF-8"?>
<svg width="42px" height="16px" viewBox="0 0 42 16" version="1.1" xmlns="http://www.w3.org/2000/svg" xmlns:xlink="http://www.w3.org/1999/xlink">
    <title>路径</title>
    <g id="Hwameistor" stroke="none" stroke-width="1" fill="none" fill-rule="evenodd" fill-opacity="0.5">
        <g id="编组-5备份-3" transform="translate(-299, -171)" fill="#D6DBE6" fill-rule="nonzero">
            <g id="Dialog-/-03_Delete" transform="translate(20, 20)">
                <g id="编组" transform="translate(20, 119)">
                    <path d="M286.570096,32.049238 L300.501105,39.1776431 C300.948281,39.4064601 301.128144,39.9601123 300.902839,40.4142599 C300.815427,40.5904581 300.674599,40.7334818 300.501105,40.8222572 L286.570096,47.9506622 C286.346508,48.0650707 286.073931,47.9737374 285.961279,47.7466636 C285.929402,47.6824081 285.912797,47.6114592 285.912797,47.5395087 L285.912797,41.5345886 L259.906648,41.5345886 C259.40592,41.5345886 259,41.1223399 259,40.6138055 L259,39.3860948 C259,38.8775603 259.40592,38.4653117 259.906648,38.4653117 L285.912797,38.4653117 L285.912797,32.4603915 C285.912797,32.2061243 286.115757,32 286.366121,32 C286.436967,32 286.506827,32.0168636 286.570096,32.049238 Z" id="路径"></path>
                </g>
            </g>
        </g>
    </g>
</svg>